<svg width="1351" height="315" viewBox="0 0 1351 315" fill="none" xmlns="http://www.w3.org/2000/svg">
<g clip-path="url(#clip0)">
<path d="M187.355 201.011L202.409 175L261.118 278.279C247.068 290.009 231.512 299.062 214.451 305.437C197.391 311.812 179.075 315 159.506 315C147.463 315 135.922 313.725 124.882 311.175L187.355 201.011ZM11.3529 210H170.294L109.635 315C86.0884 306.185 65.8691 292.574 48.9767 274.167C32.0843 255.759 19.5432 234.37 11.3529 210ZM105.845 151.791L124.882 186.667H3.04591C1.01529 175.312 0 163.687 0 151.791C0 129.082 3.80735 107.724 11.4222 87.7184C19.037 67.7123 29.4437 50.1397 42.6428 35L105.845 151.791ZM314.836 128.333C316.867 139.688 317.882 151.313 317.882 163.209C317.882 185.918 314.075 207.14 306.46 226.876C298.845 246.612 288.439 264.32 275.24 280L193 128.333H314.836ZM306.529 116.667H147.588L208.247 11.6667C231.794 20.4815 252.013 34.0925 268.906 52.5C285.798 70.9075 298.339 92.2962 306.529 116.667ZM116.979 138.47L115.474 140L56.7647 36.7213C70.8148 24.9908 86.3701 15.9381 103.431 9.56284C120.492 3.18758 138.807 0 158.377 0C170.42 0 181.961 1.27503 193 3.82514L116.979 138.47Z" fill="#FF0000"/>
<path d="M482.666 172.844H451.672V252H410.785V40.1406H481.793C493.53 40.1406 504.152 41.5472 513.659 44.3604C523.165 47.0765 531.265 51.1022 537.959 56.4375C544.749 61.7728 549.939 68.4176 553.528 76.3721C557.214 84.3265 559.057 93.542 559.057 104.019C559.057 111.585 558.136 118.424 556.293 124.535C554.546 130.549 551.976 135.982 548.581 140.832C545.282 145.585 541.257 149.757 536.504 153.346C531.847 156.935 526.609 160.039 520.789 162.658L566.333 250.108V252H522.535L482.666 172.844ZM451.672 139.668H481.938C493.482 139.668 502.358 136.758 508.566 130.938C514.871 125.02 518.024 116.969 518.024 106.783C518.024 96.2096 514.968 88.0127 508.857 82.1924C502.746 76.2751 493.724 73.3164 481.793 73.3164H451.672V139.668ZM667.606 254.91C655.48 254.91 644.47 252.922 634.576 248.944C624.681 244.967 616.193 239.583 609.112 232.793C602.031 225.906 596.55 217.854 592.67 208.639C588.886 199.326 586.995 189.383 586.995 178.81V172.989C586.995 160.961 588.886 149.999 592.67 140.104C596.453 130.113 601.74 121.528 608.53 114.35C615.32 107.171 623.372 101.593 632.684 97.6162C641.997 93.639 652.134 91.6504 663.095 91.6504C674.445 91.6504 684.533 93.542 693.361 97.3252C702.285 101.011 709.803 106.25 715.915 113.04C722.123 119.83 726.828 128.027 730.029 137.631C733.23 147.137 734.831 157.662 734.831 169.206V186.376H628.028C628.804 191.711 630.356 196.61 632.684 201.072C635.109 205.438 638.165 209.221 641.851 212.422C645.537 215.623 649.757 218.097 654.51 219.843C659.264 221.589 664.453 222.462 670.08 222.462C674.057 222.462 677.986 222.074 681.866 221.298C685.843 220.522 689.626 219.406 693.215 217.951C696.805 216.399 700.151 214.507 703.255 212.276C706.36 210.045 709.076 207.426 711.404 204.419L731.629 226.245C729.107 229.834 725.809 233.375 721.735 236.867C717.758 240.262 713.004 243.318 707.475 246.034C702.043 248.653 695.98 250.787 689.287 252.437C682.593 254.086 675.366 254.91 667.606 254.91ZM662.804 124.39C658.245 124.39 654.074 125.214 650.291 126.863C646.507 128.415 643.161 130.695 640.251 133.702C637.437 136.709 635.061 140.299 633.121 144.47C631.181 148.641 629.726 153.297 628.755 158.438H695.107V155.237C694.913 150.969 694.088 146.943 692.633 143.16C691.178 139.377 689.093 136.127 686.377 133.411C683.66 130.598 680.314 128.415 676.337 126.863C672.456 125.214 667.946 124.39 662.804 124.39ZM868.552 252C867.582 250.06 866.758 247.829 866.079 245.307C865.4 242.785 864.818 240.117 864.333 237.304C862.101 239.729 859.531 242.008 856.621 244.143C853.711 246.277 850.461 248.168 846.872 249.817C843.379 251.369 839.499 252.582 835.231 253.455C830.963 254.425 826.355 254.91 821.408 254.91C813.356 254.91 805.935 253.746 799.145 251.418C792.452 249.09 786.68 245.84 781.83 241.669C776.979 237.498 773.196 232.55 770.48 226.827C767.764 221.007 766.406 214.701 766.406 207.911C766.406 191.323 772.566 178.519 784.885 169.497C797.302 160.379 815.782 155.819 840.324 155.819H862.878V146.507C862.878 138.94 860.404 132.975 855.457 128.609C850.509 124.147 843.379 121.916 834.067 121.916C825.822 121.916 819.807 123.711 816.024 127.3C812.241 130.792 810.349 135.497 810.349 141.414H769.898C769.898 134.721 771.353 128.367 774.263 122.353C777.27 116.338 781.587 111.051 787.213 106.492C792.937 101.933 799.873 98.3438 808.021 95.7246C816.267 93.0085 825.676 91.6504 836.25 91.6504C845.756 91.6504 854.584 92.8145 862.732 95.1426C870.977 97.4707 878.107 100.914 884.122 105.474C890.136 110.033 894.841 115.805 898.236 122.789C901.631 129.676 903.329 137.679 903.329 146.798V214.313C903.329 222.753 903.862 229.737 904.929 235.267C905.996 240.796 907.548 245.549 909.586 249.526V252H868.552ZM829.993 223.626C834.067 223.626 837.85 223.141 841.342 222.171C844.835 221.201 847.987 219.94 850.8 218.388C853.614 216.836 856.039 215.09 858.076 213.149C860.113 211.112 861.713 209.075 862.878 207.038V179.974H842.215C835.91 179.974 830.526 180.604 826.064 181.865C821.602 183.029 817.964 184.727 815.151 186.958C812.338 189.092 810.252 191.711 808.894 194.815C807.536 197.823 806.857 201.121 806.857 204.71C806.857 210.142 808.749 214.653 812.532 218.242C816.412 221.831 822.232 223.626 829.993 223.626ZM957.603 28.5H1045.64V219.115H1090.74V252H957.603V219.115H1004.75V61.5303H957.603V28.5ZM1153.31 94.5605L1154.48 113.622C1157.48 106.832 1161.61 101.496 1166.84 97.6162C1172.18 93.639 1178.63 91.6504 1186.2 91.6504C1198.9 91.6504 1207.2 97.2282 1211.08 108.384C1214.18 103.146 1218.11 99.0713 1222.86 96.1611C1227.71 93.154 1233.53 91.6504 1240.32 91.6504C1245.08 91.6504 1249.49 92.5234 1253.57 94.2695C1257.74 96.0156 1261.33 98.8288 1264.33 102.709C1267.44 106.492 1269.81 111.439 1271.46 117.551C1273.21 123.565 1274.08 130.938 1274.08 139.668V252H1237.27V139.522C1237.27 136.515 1236.93 134.042 1236.25 132.102C1235.67 130.161 1234.84 128.658 1233.78 127.591C1232.71 126.427 1231.45 125.651 1229.99 125.263C1228.64 124.778 1227.23 124.535 1225.77 124.535C1222.96 124.535 1220.58 125.214 1218.64 126.572C1216.7 127.833 1215.2 129.579 1214.13 131.811V252H1178.48V139.377C1178.48 136.37 1178.19 133.896 1177.61 131.956C1177.03 130.016 1176.2 128.512 1175.14 127.445C1174.17 126.378 1173 125.651 1171.65 125.263C1170.29 124.778 1168.83 124.535 1167.28 124.535C1164.18 124.535 1161.65 125.408 1159.71 127.154C1157.87 128.9 1156.42 131.229 1155.35 134.139V252H1118.53V94.5605H1153.31Z" fill="black"/>
</g>
<defs>
<clipPath id="clip0">
<rect width="1351" height="315" fill="white"/>
</clipPath>
</defs>
</svg>
